<svg width="64" height="62" viewBox="0 0 64 62" fill="none" xmlns="http://www.w3.org/2000/svg">
<path d="M0 39.043C2.15992 38.9474 3.98754 38.151 5.48287 36.6536C6.97819 35.1563 7.74247 33.3722 7.74247 31.3014C7.74247 33.3722 8.47352 35.1563 9.96885 36.6536C11.4642 38.151 13.2918 38.9474 15.4517 39.043C13.2918 39.1386 11.4642 39.935 9.96885 41.4324C9.2459 42.1382 8.67672 42.975 8.29449 43.8939C7.91225 44.8128 7.7246 45.7954 7.74247 46.7845C7.74247 44.7138 7.01142 42.9297 5.48287 41.4324C3.98754 39.935 2.15992 39.1386 0 39.043ZM7.74247 16.1051C11.9294 15.9139 15.4849 14.3529 18.4091 11.4219C21.3333 8.49095 22.7954 5.01841 22.7954 0.972412C22.7954 5.01841 24.2575 8.49095 27.1817 11.4219C30.1059 14.3529 33.6615 15.8821 37.8816 16.1051C35.1236 16.2325 32.5981 16.9652 30.2721 18.367C27.9792 19.7369 26.1516 21.5847 24.7892 23.8785C23.46 26.1723 22.7954 28.6253 22.7954 31.3014C22.7954 27.2554 21.3333 23.751 18.4091 20.8201C15.4849 17.8573 11.9294 16.2962 7.74247 16.1051ZM18.7747 50.4164C21.9315 50.2889 24.6231 49.1102 26.8162 46.912C29.0093 44.7138 30.1059 42.1014 30.1059 39.043C30.1059 42.1014 31.2025 44.7138 33.3956 46.912C35.5888 49.1102 38.2471 50.2889 41.4039 50.4164C38.2471 50.5438 35.5888 51.7226 33.3956 53.9208C31.2025 56.119 30.1059 58.7314 30.1059 61.7898C30.1059 58.7314 29.0093 56.119 26.8162 53.9208C24.7201 51.7851 21.8313 50.5262 18.7747 50.4164ZM41.4039 35.3156C44.5607 35.1881 47.2191 34.0094 49.4123 31.8112C51.6054 29.613 52.6687 27.0006 52.6687 23.9103C52.6687 26.9687 53.7653 29.5811 55.9585 31.7793C58.1516 33.9775 60.8432 35.1563 64 35.2837C60.8432 35.4112 58.1516 36.5899 55.9585 38.7881C53.7653 40.9863 52.6687 43.5987 52.6687 46.6571C52.6687 43.5987 51.5722 40.9863 49.4123 38.7881C47.2191 36.6218 44.5607 35.443 41.4039 35.3156Z" fill="white"/>
</svg>
